<mxfile host="2267345d-3bc4-4352-8e2b-018cbe6f7449" modified="2020-12-16T09:56:45.260Z" agent="5.0 (Windows NT 6.1; Win64; x64) AppleWebKit/537.36 (KHTML, like Gecko) Code/1.47.3 Chrome/78.0.3904.130 Electron/7.3.2 Safari/537.36" etag="6mbgwOtpkDKiKnMfuhvV" version="13.1.3">
    <diagram id="6hGFLwfOUW9BJ-s0fimq" name="html">
        <mxGraphModel dx="822" dy="480" grid="1" gridSize="10" guides="1" tooltips="1" connect="1" arrows="1" fold="1" page="1" pageScale="1" pageWidth="827" pageHeight="1169" math="0" shadow="0">
            <root>
                <mxCell id="0"/>
                <mxCell id="1" parent="0"/>
                <mxCell id="2" value="&lt;p&gt;&lt;/p&gt;&lt;table cellpadding=&quot;4&quot; cellspacing=&quot;0&quot; border=&quot;1&quot; style=&quot;font-size: 1em ; width: 100% ; height: 100%&quot;&gt;&lt;tbody&gt;&lt;tr&gt;&lt;td&gt;form&lt;br&gt;&lt;/td&gt;&lt;td&gt;&lt;h3&gt;&lt;font face=&quot;Courier New&quot;&gt;&amp;lt;form&amp;gt;&amp;lt;/form&amp;gt;&lt;/font&gt;&lt;/h3&gt;&lt;div&gt;&lt;font face=&quot;Courier New&quot;&gt;&amp;lt;form method=&quot;POST&quot; action=&quot;/&quot;&amp;gt;&lt;/font&gt;&lt;/div&gt;&lt;div&gt;&lt;font face=&quot;Courier New&quot;&gt;...&lt;/font&gt;&lt;/div&gt;&lt;div&gt;&lt;font face=&quot;Courier New&quot;&gt;&amp;lt;/form&amp;gt;&lt;/font&gt;&lt;/div&gt;&lt;div&gt;&lt;ol&gt;&lt;li&gt;&lt;font face=&quot;Courier New&quot;&gt;method=[&quot;POST&quot;, &quot;GET&quot;]&lt;/font&gt;&lt;/li&gt;&lt;li&gt;&lt;font face=&quot;Courier New&quot;&gt;action&lt;/font&gt;&amp;nbsp;- when action is omitted or has blank value, returns back to current pages&lt;/li&gt;&lt;li&gt;&lt;font face=&quot;Courier New&quot;&gt;enctype=&quot;multipart/form-data&quot;&lt;/font&gt;&amp;nbsp;- for binary data sending, e.g., file&lt;/li&gt;&lt;li&gt;&lt;font face=&quot;Courier New&quot;&gt;novalidate&lt;/font&gt; - turn off the browser's automatic validation&lt;/li&gt;&lt;/ol&gt;&lt;/div&gt;&lt;div&gt;&lt;h3&gt;&lt;font face=&quot;Courier New&quot;&gt;&amp;lt;fieldset&amp;gt;&amp;lt;legend&amp;gt;...&amp;lt;/legend&amp;gt;...&amp;lt;/fieldset&amp;gt;&lt;/font&gt;&lt;/h3&gt;&lt;/div&gt;&lt;h3&gt;&lt;font face=&quot;Courier New&quot;&gt;&amp;lt;textarea&amp;gt;...&amp;lt;textarea&amp;gt;&amp;nbsp;&lt;/font&gt;multi-line text fields&lt;/h3&gt;&lt;div&gt;&lt;ol&gt;&lt;li&gt;cols=&quot;30&quot;&lt;/li&gt;&lt;li&gt;rows=&quot;10&quot;&lt;/li&gt;&lt;/ol&gt;&lt;/div&gt;&lt;h3&gt;&lt;font face=&quot;Courier New&quot;&gt;&amp;lt;select&amp;gt;&amp;lt;/select&amp;gt;&lt;/font&gt;&lt;/h3&gt;&lt;div&gt;&lt;font face=&quot;Courier New&quot;&gt;&amp;lt;select id=&quot;card&quot; name=&quot;fruit&quot; multiple&amp;gt;&lt;/font&gt;&lt;/div&gt;&lt;div&gt;&lt;font face=&quot;Courier New&quot;&gt;&amp;nbsp; &amp;nbsp; &amp;lt;option value=&quot;apple&quot;&amp;gt;Apple&amp;lt;/option&amp;gt;&lt;/font&gt;&lt;/div&gt;&lt;div&gt;&lt;font face=&quot;Courier New&quot;&gt;&amp;nbsp; &amp;nbsp; &amp;lt;option value=&quot;orange&quot; selected&amp;gt;Orange&amp;lt;/option&amp;gt;&lt;/font&gt;&lt;/div&gt;&lt;div&gt;&lt;font face=&quot;Courier New&quot;&gt;&amp;nbsp; &amp;nbsp; &amp;lt;option value=&quot;pear&quot;&amp;gt;Pear&amp;lt;/option&amp;gt;&lt;/font&gt;&lt;/div&gt;&lt;div&gt;&lt;font face=&quot;Courier New&quot;&gt;&amp;lt;/select&amp;gt;&lt;br&gt;&lt;/font&gt;&lt;/div&gt;&lt;h3&gt;&lt;font face=&quot;Courier New&quot;&gt;&amp;lt;label for=&quot;username&quot;&amp;gt;...&amp;lt;/label&amp;gt;&lt;/font&gt;&lt;/h3&gt;&lt;h3&gt;&lt;font face=&quot;Courier New&quot;&gt;&amp;lt;input&amp;gt;&amp;nbsp;&lt;/font&gt;single line text field&lt;/h3&gt;&lt;div&gt;&lt;font face=&quot;Courier New&quot;&gt;&amp;lt;label for=&quot;username&quot;&amp;gt;name&amp;lt;/label&amp;gt;&lt;/font&gt;&lt;/div&gt;&lt;div&gt;&lt;font face=&quot;Courier New&quot;&gt;&amp;lt;input type=&quot;text&quot; id=&quot;username&quot; name=&quot;user_name&quot;&amp;gt;&lt;/font&gt;&lt;/div&gt;&lt;div&gt;&lt;div&gt;&lt;br&gt;&lt;/div&gt;&lt;div&gt;&lt;font face=&quot;Courier New&quot;&gt;type attributes:&lt;/font&gt;&lt;/div&gt;&lt;div&gt;&lt;ol&gt;&lt;li&gt;&lt;font face=&quot;Courier New&quot;&gt;text -&amp;nbsp;&lt;/font&gt;default value when &lt;font face=&quot;Courier New&quot;&gt;type &lt;/font&gt;has no value or is not known&lt;/li&gt;&lt;li&gt;&lt;span style=&quot;font-family: &amp;#34;courier new&amp;#34; ; font-size: 1em&quot;&gt;password&lt;/span&gt;&lt;br&gt;&lt;/li&gt;&lt;li&gt;&lt;font face=&quot;Courier New&quot;&gt;hidden&lt;/font&gt;&amp;nbsp;- invisible to user, when sent to server, requires&amp;nbsp;&lt;font face=&quot;Courier New&quot; style=&quot;font-size: 1em&quot;&gt;name&lt;/font&gt;&lt;span style=&quot;font-size: 1em&quot;&gt;&amp;nbsp;and&amp;nbsp;&lt;/span&gt;&lt;font face=&quot;Courier New&quot; style=&quot;font-size: 1em&quot;&gt;value&lt;/font&gt;&lt;span style=&quot;font-size: 1em&quot;&gt;, and has no associated&amp;nbsp;&lt;font face=&quot;Courier New&quot;&gt;label&lt;/font&gt;&lt;/span&gt;&lt;/li&gt;&lt;li&gt;&lt;font face=&quot;Courier New&quot;&gt;radio [&lt;/font&gt;&lt;font face=&quot;Courier New&quot; style=&quot;font-size: 1em&quot;&gt;checked]&lt;/font&gt;&lt;span style=&quot;font-size: 1em&quot;&gt;&amp;nbsp;- if checked, but have no&lt;/span&gt;&lt;span style=&quot;font-size: 1em&quot;&gt;&amp;nbsp;&lt;/span&gt;&lt;font face=&quot;Courier New&quot; style=&quot;font-size: 1em&quot;&gt;value&lt;/font&gt;&lt;span style=&quot;font-size: 1em&quot;&gt;, the value will be&amp;nbsp;&lt;/span&gt;&lt;font face=&quot;Courier New&quot; style=&quot;font-size: 1em&quot;&gt;on&lt;/font&gt;&lt;/li&gt;&lt;li&gt;&lt;font face=&quot;Courier New&quot;&gt;checkbox, [&lt;/font&gt;&lt;font face=&quot;Courier New&quot; style=&quot;font-size: 1em&quot;&gt;checked]&lt;/font&gt;&lt;span style=&quot;font-size: 1em&quot;&gt;&amp;nbsp;- if checked, but have no&lt;/span&gt;&lt;span style=&quot;font-size: 1em&quot;&gt;&amp;nbsp;&lt;/span&gt;&lt;font face=&quot;Courier New&quot; style=&quot;font-size: 1em&quot;&gt;value&lt;/font&gt;&lt;span style=&quot;font-size: 1em&quot;&gt;, the value will be&amp;nbsp;&lt;/span&gt;&lt;font face=&quot;Courier New&quot; style=&quot;font-size: 1em&quot;&gt;on&lt;/font&gt;&lt;/li&gt;&lt;li&gt;&lt;font face=&quot;Courier New&quot;&gt;file [multiple, accept=&quot;image/*&quot;]&lt;/font&gt;&lt;/li&gt;&lt;li&gt;&lt;font face=&quot;Courier New&quot;&gt;submit&lt;/font&gt;&lt;/li&gt;&lt;li&gt;&lt;font face=&quot;Courier New&quot;&gt;image,&amp;nbsp;alt=&quot;lovely&quot; src=&quot;lovely.png&quot; width=&quot;80&quot; height=&quot;80&quot;&lt;/font&gt; -&amp;nbsp;&lt;font face=&quot;Courier New&quot;&gt;submit&lt;/font&gt;&amp;nbsp;with image&lt;/li&gt;&lt;li&gt;&lt;font face=&quot;Courier New&quot;&gt;reset&lt;/font&gt;&amp;nbsp;- not recommend&lt;/li&gt;&lt;li&gt;&lt;font face=&quot;Courier New&quot;&gt;button&lt;/font&gt;&lt;/li&gt;&lt;li&gt;------------------&amp;nbsp; &amp;nbsp; &amp;nbsp; &amp;nbsp; the aboves are basic controls&amp;nbsp; &amp;nbsp; &amp;nbsp; &amp;nbsp; ------------------&lt;/li&gt;&lt;li&gt;------------------&amp;nbsp; &amp;nbsp;the followings are added in HTML5&amp;nbsp; &amp;nbsp; ------------------&lt;/li&gt;&lt;li&gt;&lt;font face=&quot;Courier New&quot;&gt;number&lt;/font&gt;&lt;/li&gt;&lt;li&gt;&lt;font face=&quot;Courier New&quot;&gt;range&lt;/font&gt;&lt;/li&gt;&lt;li&gt;&lt;font face=&quot;Courier New&quot;&gt;search&lt;/font&gt;&lt;/li&gt;&lt;li&gt;&lt;span style=&quot;font-family: &amp;#34;courier new&amp;#34; ; font-size: 1em&quot;&gt;email&lt;/span&gt;&lt;br&gt;&lt;/li&gt;&lt;li&gt;&lt;font face=&quot;Courier New&quot;&gt;tel&lt;/font&gt;&lt;/li&gt;&lt;li&gt;&lt;font face=&quot;Courier New&quot;&gt;url&lt;/font&gt;&lt;/li&gt;&lt;li&gt;&lt;font face=&quot;Courier New&quot;&gt;color&lt;/font&gt;&lt;/li&gt;&lt;li&gt;&lt;font face=&quot;Courier New&quot;&gt;datetime&lt;/font&gt;&amp;nbsp;- is discarded&lt;/li&gt;&lt;li&gt;&lt;font face=&quot;Courier New&quot;&gt;datetime-local&lt;/font&gt;&lt;/li&gt;&lt;li&gt;&lt;font face=&quot;Courier New&quot;&gt;date&lt;/font&gt;&lt;/li&gt;&lt;li&gt;&lt;font face=&quot;Courier New&quot;&gt;time&lt;/font&gt;&lt;/li&gt;&lt;li&gt;&lt;font face=&quot;Courier New&quot;&gt;month&lt;/font&gt;&lt;/li&gt;&lt;li&gt;&lt;font face=&quot;Courier New&quot;&gt;week&lt;/font&gt;&lt;/li&gt;&lt;/ol&gt;&lt;div&gt;common attributes:&lt;/div&gt;&lt;/div&gt;&lt;ol&gt;&lt;li&gt;&lt;font face=&quot;Courier New&quot; style=&quot;font-size: 1em&quot;&gt;name=&quot;...&quot; &lt;/font&gt;&lt;span style=&quot;font-size: 1em&quot;&gt;- parameter name for server-side use&lt;/span&gt;&lt;br&gt;&lt;/li&gt;&lt;li&gt;&lt;font face=&quot;Courier New&quot;&gt;value=&quot;...&quot;&lt;/font&gt; - initial value, in single line fields, line breaks will be removed by browser before sending data to server&lt;/li&gt;&lt;li&gt;&lt;font face=&quot;Courier New&quot;&gt;readonly&lt;/font&gt; - input cannot be modified, and it is still sent with the rest of the form data&lt;/li&gt;&lt;li&gt;&lt;font face=&quot;Courier New&quot;&gt;diabled&lt;/font&gt; - input cannot be modified and is never sent with the rest of the form data&lt;/li&gt;&lt;li&gt;&lt;font face=&quot;Courier New&quot;&gt;required&lt;/font&gt;&lt;/li&gt;&lt;li&gt;&lt;span style=&quot;font-family: &amp;#34;courier new&amp;#34; ; font-size: 1em&quot;&gt;placeholder=&quot;...&quot;&lt;/span&gt;&lt;br&gt;&lt;/li&gt;&lt;li&gt;&lt;span style=&quot;font-family: &amp;#34;courier new&amp;#34; ; font-size: 1em&quot;&gt;autofocus&lt;/span&gt;&lt;/li&gt;&lt;li&gt;&lt;font face=&quot;Courier New&quot;&gt;minlength=&quot;10&quot; maxlength=&quot;80&quot;&lt;/font&gt;&amp;nbsp;- minimum and maximum number of characters in the box&lt;/li&gt;&lt;li&gt;&lt;font face=&quot;Courier New&quot;&gt;min=&quot;10&quot; max=&quot;80&quot; step=&quot;2&quot;&lt;/font&gt;&amp;nbsp;- minimum and maximum values of numerical input types&lt;/li&gt;&lt;li&gt;&lt;font face=&quot;Courier New&quot;&gt;pattern=&quot;[Aa]b|[Xx]y&quot;&lt;/font&gt;&amp;nbsp;- &lt;font face=&quot;Courier New&quot;&gt;&amp;lt;textarea&amp;gt;&lt;/font&gt; not support&lt;/li&gt;&lt;li&gt;&lt;font face=&quot;Courier New&quot;&gt;autocomplete=[&quot;off&quot;, &quot;on&quot;] - &lt;/font&gt;for &lt;font face=&quot;Courier New&quot;&gt;input&lt;/font&gt;&lt;/li&gt;&lt;li&gt;&lt;font face=&quot;Courier New&quot;&gt;form=&quot;form-id&quot;&lt;/font&gt; - when control is outside of the &lt;font face=&quot;Courier New&quot;&gt;&amp;lt;form id=&quot;form-id&amp;gt;&lt;/font&gt;&lt;/li&gt;&lt;/ol&gt;&lt;h3&gt;&lt;font face=&quot;Courier New&quot;&gt;&amp;lt;button&amp;gt;&amp;lt;/button&amp;gt;&lt;/font&gt;&lt;/h3&gt;&lt;/div&gt;&lt;div&gt;type attributes:&lt;/div&gt;&lt;div&gt;&lt;ol&gt;&lt;li&gt;&lt;font face=&quot;Courier New&quot;&gt;submit&lt;/font&gt;&amp;nbsp;- default value when &lt;font face=&quot;Courier New&quot;&gt;type&lt;/font&gt; has no or invalid value&lt;/li&gt;&lt;li&gt;&lt;font face=&quot;Courier New&quot;&gt;reset&lt;/font&gt;&lt;/li&gt;&lt;li&gt;&lt;font face=&quot;Courier New&quot;&gt;button&lt;/font&gt; - has no automatic effect but can be customized using js code&lt;/li&gt;&lt;/ol&gt;&lt;/div&gt;&lt;/td&gt;&lt;/tr&gt;&lt;/tbody&gt;&lt;/table&gt;&lt;p&gt;&lt;/p&gt; " style="verticalAlign=top;align=left;overflow=fill;fontSize=12;fontFamily=Helvetica;html=1;spacing=2;" parent="1" vertex="1">
                    <mxGeometry x="20" y="30" width="730" height="1280" as="geometry"/>
                </mxCell>
            </root>
        </mxGraphModel>
    </diagram>
</mxfile>
